<?xml version="1.0" encoding="utf-8"?>
<!-- Generator: Adobe Illustrator 17.0.0, SVG Export Plug-In . SVG Version: 6.00 Build 0)  -->
<!DOCTYPE svg PUBLIC "-//W3C//DTD SVG 1.1//EN" "http://www.w3.org/Graphics/SVG/1.1/DTD/svg11.dtd">
<svg version="1.1" id="Layer_1" xmlns="http://www.w3.org/2000/svg" xmlns:xlink="http://www.w3.org/1999/xlink" x="0px" y="0px"
	 width="219.054px" height="219.054px" viewBox="0 0 219.054 219.054" enable-background="new 0 0 219.054 219.054"
	 xml:space="preserve">
<g>
	<g>
		<path fill="#F8BB60" d="M130.769,113.153c-3.435-1.287-3.367-5.366-2.77-8.41l-1.863,1.293l-0.769-2.457
			c-1.142,2.477-3.453,5.922-7.387,5.504c-4.548-0.482-6.463-11.389-7.139-16.835h-3.514c-0.675,5.445-2.591,16.352-7.138,16.835
			c-4.283,0.455-6.644-3.668-7.662-6.136l-2.621,0.626c0.779,3.059,1.394,8.119-2.505,9.58c-3.449,1.293-6.897-0.869-9.086-2.781
			c-0.723,0.916-1.737,1.59-2.904,1.879l11.438,26.915c0,0,9.051-2.668,22.234-2.668s22.235,2.668,22.235,2.668l11.545-27.167
			l-3.14-1.516C137.533,112.366,134.151,114.421,130.769,113.153z"/>
		<path fill="#89181D" d="M91.911,101.173h-2.76c0,0,0.396,0.985,0.757,2.4l2.621-0.626
			C92.103,101.915,91.911,101.173,91.911,101.173z"/>
		<path fill="#427839" d="M110.53,89.213h-1.444h-1.443c0,0-0.087,1.211-0.313,3.036h3.514
			C110.616,90.423,110.53,89.213,110.53,89.213z"/>
		<path fill="#275FA1" d="M128,104.743c0.395-2.012,1.021-3.57,1.021-3.57h-2.76c0,0-0.273,1.06-0.894,2.406l0.769,2.457
			L128,104.743z"/>
		<path fill="#4E1E5B" d="M142.175,107.979c0,0-0.943,1.211-2.449,2.504l3.14,1.516l0.966-2.272L142.175,107.979z"/>
		<path fill="#C7B02E" d="M78.317,110.372c-1.43-1.25-2.321-2.393-2.321-2.393l-1.656,1.748l1.073,2.524
			C76.58,111.962,77.594,111.288,78.317,110.372z"/>
		<circle fill="#EFD622" cx="73.204" cy="106.152" r="5.336"/>
		<polygon fill="#CB2029" points="88.209,91.557 96.852,100.68 84.629,103.604 		"/>
		<rect x="103.75" y="80.472" fill="#6EB352" width="10.672" height="10.672"/>
		<polygon fill="#4874B7" points="124.332,97.245 130.713,92.815 133.033,100.227 126.653,104.656 		"/>
		<polygon fill="#7E2B89" points="139.108,108.951 138.655,102.809 143.746,99.345 149.292,102.024 149.745,108.165 
			144.654,111.629 		"/>
		<path fill="none" stroke="#FFFFFF" stroke-width="0.7823" d="M82.683,125.461c0.443,0.138,23.628-6.073,52.196,0"/>
	</g>
</g>
</svg>
