<?xml version="1.0" encoding="utf-8"?>
<!-- Generator: Adobe Illustrator 17.0.0, SVG Export Plug-In . SVG Version: 6.00 Build 0)  -->
<!DOCTYPE svg PUBLIC "-//W3C//DTD SVG 1.1//EN" "http://www.w3.org/Graphics/SVG/1.1/DTD/svg11.dtd">
<svg version="1.1" id="Layer_1" xmlns="http://www.w3.org/2000/svg" xmlns:xlink="http://www.w3.org/1999/xlink" x="0px" y="0px"
	 width="219.054px" height="219.054px" viewBox="0 0 219.054 219.054" enable-background="new 0 0 219.054 219.054"
	 xml:space="preserve">
<g>
	<g>
		<polygon fill="#B0E0E5" points="168.118,71.865 177.294,63.87 166.473,69.44 157.298,77.437 		"/>
		<polygon fill="#B0E0E5" points="149,52.214 154.417,41.315 146.552,50.603 141.135,61.502 		"/>
		<polygon fill="#B0E0E5" points="123.818,41.375 124.652,29.232 120.939,40.824 120.106,52.965 		"/>
		<polygon fill="#B0E0E5" points="96.404,40.997 92.528,29.46 93.534,41.59 97.409,53.127 		"/>
		<polygon fill="#B0E0E5" points="70.932,51.14 62.936,41.965 68.506,52.785 76.502,61.96 		"/>
		<polygon fill="#B0E0E5" points="51.281,70.258 40.381,64.841 49.67,72.706 60.569,78.123 		"/>
		<polygon fill="#B0E0E5" points="40.441,95.44 28.299,94.607 39.889,98.319 52.032,99.153 		"/>
		<polygon fill="#B0E0E5" points="40.064,122.854 28.527,126.731 40.656,125.725 52.193,121.849 		"/>
		<polygon fill="#B0E0E5" points="50.206,148.327 41.031,156.322 51.852,150.752 61.028,142.756 		"/>
		<polygon fill="#B0E0E5" points="69.325,167.978 63.907,178.877 71.773,169.589 77.19,158.69 		"/>
		<polygon fill="#B0E0E5" points="94.507,178.817 93.673,190.96 97.385,179.368 98.219,167.226 		"/>
		<polygon fill="#B0E0E5" points="121.921,179.194 125.797,190.731 124.791,178.602 120.914,167.066 		"/>
		<polygon fill="#B0E0E5" points="147.393,169.052 155.389,178.227 149.819,167.407 141.822,158.231 		"/>
		<polygon fill="#B0E0E5" points="167.044,149.934 177.943,155.351 168.655,147.486 157.757,142.069 		"/>
		<polygon fill="#B0E0E5" points="177.884,124.751 190.026,125.585 178.435,121.873 166.293,121.039 		"/>
		<polygon fill="#B0E0E5" points="178.262,97.337 189.797,93.461 177.668,94.467 166.131,98.344 		"/>
	</g>
</g>
</svg>
