<?xml version="1.0" encoding="utf-8"?>
<!-- Generator: Adobe Illustrator 17.0.0, SVG Export Plug-In . SVG Version: 6.00 Build 0)  -->
<!DOCTYPE svg PUBLIC "-//W3C//DTD SVG 1.1//EN" "http://www.w3.org/Graphics/SVG/1.1/DTD/svg11.dtd">
<svg version="1.1" id="Layer_1" xmlns="http://www.w3.org/2000/svg" xmlns:xlink="http://www.w3.org/1999/xlink" x="0px" y="0px"
	 width="219.054px" height="219.054px" viewBox="0 0 219.054 219.054" enable-background="new 0 0 219.054 219.054"
	 xml:space="preserve">
<g>
	<g>
		<polygon fill="#FDEF32" points="192.601,113.018 214.335,109.495 192.389,107.72 170.657,111.245 		"/>
		<polygon fill="#FDEF32" points="187.323,80.74 206.052,69.168 185.099,75.926 166.37,87.499 		"/>
		<polygon fill="#FDEF32" points="170.093,52.939 182.968,35.08 166.197,49.342 153.321,67.201 		"/>
		<polygon fill="#FDEF32" points="143.536,33.847 148.596,12.421 138.56,32.015 133.5,53.442 		"/>
		<polygon fill="#FDEF32" points="111.694,26.372 108.171,4.64 106.396,26.585 109.92,48.316 		"/>
		<polygon fill="#FDEF32" points="79.417,31.651 67.844,12.921 74.602,33.875 86.175,52.604 		"/>
		<polygon fill="#FDEF32" points="51.615,48.88 33.757,36.005 48.018,52.777 65.878,65.652 		"/>
		<polygon fill="#FDEF32" points="32.523,75.437 11.096,70.377 30.691,80.414 52.118,85.475 		"/>
		<polygon fill="#FDEF32" points="25.048,107.279 3.315,110.803 25.259,112.578 46.993,109.053 		"/>
		<polygon fill="#FDEF32" points="30.327,139.557 11.597,151.13 32.55,144.371 51.279,132.799 		"/>
		<polygon fill="#FDEF32" points="47.556,167.359 34.681,185.217 51.453,170.955 64.328,153.096 		"/>
		<polygon fill="#FDEF32" points="74.113,186.451 69.052,207.877 79.09,188.282 84.15,166.855 		"/>
		<polygon fill="#FDEF32" points="105.955,193.925 109.479,215.658 111.253,193.713 107.729,171.981 		"/>
		<polygon fill="#FDEF32" points="138.233,188.646 149.805,207.376 143.047,186.423 131.474,167.694 		"/>
		<polygon fill="#FDEF32" points="166.035,171.417 183.893,184.292 169.632,167.52 151.772,154.645 		"/>
		<polygon fill="#FDEF32" points="185.126,144.86 206.553,149.921 186.958,139.883 165.531,134.823 		"/>
	</g>
</g>
</svg>
